<?xml version="1.0" standalone="no"?>
<!DOCTYPE svg PUBLIC "-//W3C//DTD SVG 20010904//EN"
 "http://www.w3.org/TR/2001/REC-SVG-20010904/DTD/svg10.dtd">
<svg version="1.0" xmlns="http://www.w3.org/2000/svg"
 viewBox="0 0 4000.000000 4000.000000" preserveAspectRatio="xMidYMid meet">

<g transform="translate(0.000000,4000.000000) scale(0.100000,-0.100000)"
fill="#000000" stroke="none">
<path d="M18095 38242 c-906 -460 -1583 -851 -2309 -1334 -2458 -1637 -3924
-3481 -4376 -5504 -71 -319 -115 -630 -140 -974 -13 -189 -13 -657 0 -852 130
-1906 1015 -3885 2744 -6133 334 -435 697 -878 1180 -1445 793 -928 1237
-1460 1573 -1885 1023 -1294 1647 -2319 1996 -3280 238 -657 353 -1306 333
-1890 -42 -1257 -411 -2434 -1081 -3450 -921 -1398 -2341 -2358 -3975 -2689
-1289 -261 -2725 -94 -3960 461 -498 224 -948 505 -1375 859 -154 128 -517
487 -634 629 -422 509 -708 1013 -910 1607 -227 670 -305 1330 -232 1963 32
275 81 494 172 773 437 1334 1612 2499 3146 3121 492 199 1014 331 1524 387
167 18 610 25 780 11 l96 -7 42 106 c23 59 40 108 39 109 -2 1 -77 7 -168 14
-203 14 -714 14 -910 1 -1216 -83 -2383 -479 -3405 -1155 -405 -269 -735 -536
-1084 -880 -583 -574 -989 -1129 -1326 -1810 -295 -597 -464 -1164 -520 -1744
-19 -198 -19 -594 0 -861 123 -1727 877 -3155 2171 -4111 932 -689 2100 -1119
3444 -1269 650 -72 1577 -63 2190 21 1119 153 2148 504 3125 1064 2070 1186
3572 3164 4079 5370 123 538 175 977 183 1553 8 568 -26 982 -122 1509 -59
320 -222 974 -307 1233 -328 1000 -944 2037 -2028 3415 -264 336 -507 634
-944 1160 -470 564 -511 611 -970 1115 -717 785 -982 1090 -1351 1550 -1230
1537 -1938 2995 -2144 4415 -49 335 -55 441 -55 880 -1 439 5 525 55 870 179
1240 772 2498 1747 3705 933 1154 2251 2314 3862 3398 236 159 269 182 260
182 -3 0 -189 -94 -415 -208z"/>
<path d="M18823 23445 c1442 -1973 2315 -3485 2727 -4727 218 -654 295 -1139
301 -1888 2 -246 -11 -235 144 -123 176 127 787 534 1015 675 1990 1235 3858
2008 5370 2222 390 55 477 61 932 61 275 0 431 -4 437 -10 7 -7 -54 -28 -187
-64 -2199 -602 -4344 -1682 -6091 -3069 -654 -520 -1293 -1141 -1412 -1374
-18 -35 -19 -44 -8 -71 47 -113 397 -456 754 -738 639 -505 1356 -955 2160
-1354 1329 -659 2688 -1079 4140 -1281 105 -14 191 -27 193 -28 9 -10 -522
-69 -858 -96 -210 -18 -954 -24 -1190 -11 -777 43 -1460 159 -2170 366 -1036
302 -2044 817 -2825 1442 -241 193 -387 332 -574 545 -3 4 -7 -28 -9 -70 -18
-490 -129 -1127 -296 -1704 -565 -1944 -1827 -3665 -3260 -4443 -116 -63 -149
-93 -187 -170 -27 -56 -31 -74 -31 -147 0 -181 96 -349 242 -423 50 -26 157
-31 215 -12 59 21 291 158 510 302 803 530 1502 1228 2021 2020 609 931 983
1960 1129 3111 14 109 27 199 29 202 2 2 7 -7 11 -20 17 -56 124 -297 200
-453 336 -684 801 -1264 1369 -1710 942 -739 2199 -1156 3770 -1251 535 -32
1365 -17 1956 37 1512 136 3053 446 5225 1052 165 46 476 133 692 193 215 60
390 110 389 111 -1 1 -67 10 -147 18 -1131 125 -2277 726 -3524 1849 -451 406
-914 877 -1615 1641 -721 787 -1013 1079 -1239 1240 -48 35 -52 40 -36 50 148
86 347 265 528 478 146 171 359 447 612 792 655 895 865 1174 1159 1539 786
975 1537 1696 2311 2216 351 236 777 466 1135 614 180 74 513 187 683 232
l108 29 -128 32 c-570 144 -1595 350 -2248 452 -903 141 -1513 206 -2445 263
-290 18 -1512 18 -1780 0 -305 -20 -559 -41 -760 -63 -1811 -199 -3288 -756
-4355 -1645 -744 -620 -1308 -1407 -1675 -2338 l-43 -108 -48 173 c-255 928
-708 1883 -1400 2952 -535 826 -1284 1798 -2052 2661 -15 17 42 -63 126 -179z"/>
<path d="M13001 5304 c-84 -119 -151 -218 -149 -220 2 -1 56 -4 121 -5 l118
-1 97 139 c53 77 102 139 107 139 6 0 54 -62 107 -137 l98 -138 124 -3 c81 -2
122 0 118 7 -3 6 -73 106 -155 223 l-149 212 -142 0 -143 0 -152 -216z"/>
<path d="M22805 5306 c-82 -118 -151 -218 -152 -223 -2 -4 52 -7 119 -6 l123
2 97 138 c53 76 101 138 107 138 6 0 55 -62 109 -138 l98 -138 122 -2 c67 -1
122 0 122 1 0 2 -69 102 -152 223 l-153 219 -145 -1 -145 0 -150 -213z"/>
<path d="M28625 4899 c-290 -36 -530 -187 -691 -434 -87 -134 -134 -254 -171
-440 -25 -127 -24 -460 1 -600 89 -491 368 -796 799 -871 125 -22 358 -14 472
15 249 65 453 226 574 453 69 129 146 393 117 404 -7 3 -72 3 -145 2 l-133 -3
-24 -83 c-105 -365 -337 -546 -679 -529 -407 21 -633 264 -684 735 -58 543
124 935 493 1059 75 25 93 27 241 27 147 0 167 -2 241 -27 189 -63 314 -192
369 -379 l16 -58 145 0 c109 0 144 3 144 13 0 42 -47 194 -80 263 -166 335
-552 509 -1005 453z"/>
<path d="M31105 4904 c-270 -31 -463 -121 -631 -295 -218 -226 -324 -515 -324
-882 0 -246 42 -440 136 -624 145 -283 363 -460 660 -535 79 -20 114 -23 299
-22 193 0 218 2 306 26 232 63 405 178 542 362 323 436 325 1137 2 1575 -164
223 -404 358 -695 391 -80 9 -229 11 -295 4z m377 -296 c205 -67 374 -225 460
-430 117 -279 110 -673 -17 -935 -81 -166 -208 -299 -351 -364 -111 -51 -176
-63 -334 -63 -157 -1 -248 17 -348 68 -226 115 -382 356 -422 653 -16 114 -8
370 15 467 61 268 248 505 464 587 106 40 168 49 316 45 116 -3 153 -8 217
-28z"/>
<path d="M9130 4371 l0 -481 -80 0 -80 0 0 -135 0 -135 80 0 80 0 0 -510 0
-510 489 0 c528 0 592 4 736 51 321 103 531 392 607 833 17 105 19 148 15 321
-6 208 -16 273 -62 411 -90 268 -283 480 -517 568 -150 57 -171 58 -740 63
l-528 5 0 -481z m1048 204 c205 -48 368 -209 441 -435 36 -112 51 -232 51
-405 0 -236 -27 -378 -103 -535 -55 -113 -170 -232 -270 -279 -115 -55 -166
-61 -534 -61 l-333 0 0 380 0 380 300 0 300 0 0 135 0 135 -300 0 -300 0 0
350 0 350 343 0 c266 0 356 -4 405 -15z"/>
<path d="M11567 4843 c-4 -3 -7 -510 -7 -1125 l0 -1118 150 0 150 0 0 1125 0
1125 -143 0 c-79 0 -147 -3 -150 -7z"/>
<path d="M12470 3725 l0 -1125 825 0 825 0 0 135 0 135 -675 0 -675 0 0 375 0
375 615 0 615 0 0 135 0 135 -615 0 -615 0 0 345 0 345 670 0 670 0 0 135 0
135 -820 0 -820 0 0 -1125z"/>
<path d="M14690 3726 l0 -1126 155 0 155 0 0 474 0 474 423 4 c401 4 426 6
497 27 113 34 187 77 265 156 125 125 178 264 179 470 1 138 -11 198 -62 305
-26 57 -53 93 -111 150 -86 86 -162 130 -278 162 -75 21 -101 22 -650 26
l-573 3 0 -1125z m1093 849 c159 -41 242 -129 269 -283 15 -87 1 -203 -33
-282 -30 -69 -110 -141 -191 -171 -61 -22 -76 -23 -445 -27 l-383 -3 0 390 0
391 363 0 c290 0 374 -3 420 -15z"/>
<path d="M17708 4808 c16 -24 182 -266 368 -538 187 -272 343 -500 347 -507 6
-10 -565 -847 -760 -1115 l-35 -48 184 0 183 1 309 459 c170 253 312 460 315
460 3 0 139 -206 301 -456 162 -251 300 -458 305 -461 6 -2 90 -2 188 -1 l177
3 -386 564 c-212 310 -388 570 -391 577 -2 6 165 256 371 554 207 298 376 543
376 546 0 2 -80 4 -179 4 l-178 0 -286 -432 -285 -431 -287 431 -288 432 -189
0 -189 0 29 -42z"/>
<path d="M20030 4036 c0 -878 0 -875 54 -1019 61 -161 192 -304 350 -382 152
-75 218 -88 451 -89 176 0 211 2 290 22 299 75 510 281 587 572 22 84 22 93
25 898 l4 812 -151 0 -150 0 0 -759 c0 -804 -2 -836 -48 -957 -41 -109 -131
-209 -237 -262 -108 -54 -320 -77 -455 -48 -208 44 -344 173 -402 383 -22 77
-22 92 -26 861 l-3 782 -145 0 -144 0 0 -814z"/>
<path d="M22773 4392 c-223 -594 -659 -1752 -668 -1775 -7 -16 3 -17 150 -15
l157 3 117 325 117 325 454 0 453 0 110 -327 109 -328 165 0 c152 0 165 1 158
17 -3 10 -187 516 -408 1125 l-402 1108 -170 0 -170 0 -172 -458z m506 -385
c88 -264 161 -481 161 -483 0 -2 -158 -4 -351 -4 -330 0 -351 1 -344 18 7 16
326 887 348 946 7 20 12 25 17 15 4 -8 80 -229 169 -492z"/>
<path d="M24520 3725 l0 -1125 145 0 145 0 1 533 c1 292 5 699 8 904 l6 371
570 -904 570 -904 167 0 168 0 0 1125 0 1125 -145 0 -145 0 -1 -702 c-1 -387
-5 -794 -8 -905 l-6 -202 -558 905 -559 904 -179 0 -179 0 0 -1125z"/>
<path d="M32560 2765 l0 -165 160 0 160 0 0 165 0 165 -160 0 -160 0 0 -165z"/>
<path d="M13110 2225 l0 -155 135 0 135 0 0 155 0 155 -135 0 -135 0 0 -155z"/>
</g>
</svg>
